<?xml version="1.0" encoding="utf-8"?><!-- Generator: Adobe Illustrator 16.0.0, SVG Export Plug-In . SVG Version: 6.00 Build 0)  --><!DOCTYPE svg PUBLIC "-//W3C//DTD SVG 1.1//EN" "http://www.w3.org/Graphics/SVG/1.1/DTD/svg11.dtd"><svg version="1.1" id="Layer_1" xmlns="http://www.w3.org/2000/svg" xmlns:xlink="http://www.w3.org/1999/xlink" x="0px" y="0px"	 width="512px" height="512px" viewBox="0 0 512 512" enable-background="new 0 0 512 512" xml:space="preserve"><path fill="#666666" d="M490.579,383.029c-14.152-22.086-61.763-35.824-108.835-55.453c-47.103-19.633-58.268-26.439-58.268-26.439	l-0.445-45.182c0,0,17.646-13.557,23.127-56.074c11.01,3.198,22.619-16.461,23.237-26.824c0.625-9.98-1.508-37.662-14.981-34.877	c2.754-20.845,4.741-39.586,3.764-49.505c-3.495-36.295-39.23-74.578-94.182-74.578c-54.95,0-90.7,38.283-94.193,74.578	c-0.978,9.919,1.019,28.661,3.758,49.505c-13.455-2.785-15.587,24.897-14.979,34.877c0.635,10.363,12.196,30.021,23.255,26.824	c5.462,42.517,23.122,56.074,23.122,56.074l-0.441,45.182c0,0-11.178,6.807-58.268,26.439	c-47.104,19.629-94.683,33.367-108.851,55.453c-12.7,19.777-8.882,114.875-8.882,114.875h470.946	C499.462,497.904,503.281,402.806,490.579,383.029z"/></svg>